<svg xmlns="http://www.w3.org/2000/svg" width="1200" height="630" viewBox="0 0 1200 630" role="img" aria-labelledby="title desc">
  <title id="title">Poker Pace Open Graph image</title>
  <desc id="desc">A dark poker felt table with cards, chips, and the Poker Pace title.</desc>
  <defs>
    <linearGradient id="felt" x1="0" y1="0" x2="0" y2="1">
      <stop offset="0" stop-color="#18352e" />
      <stop offset="0.58" stop-color="#102720" />
      <stop offset="1" stop-color="#091814" />
    </linearGradient>
    <radialGradient id="light" cx="50%" cy="28%" r="72%">
      <stop offset="0" stop-color="#f1d99a" stop-opacity="0.28" />
      <stop offset="0.45" stop-color="#69d7b0" stop-opacity="0.08" />
      <stop offset="1" stop-color="#000000" stop-opacity="0" />
    </radialGradient>
    <filter id="shadow" x="-30%" y="-30%" width="160%" height="160%">
      <feDropShadow dx="0" dy="22" stdDeviation="18" flood-color="#020807" flood-opacity="0.45" />
    </filter>
    <pattern id="weave" width="14" height="14" patternUnits="userSpaceOnUse">
      <path d="M0 4H14M4 0V14" stroke="#ffffff" stroke-opacity="0.028" stroke-width="1" />
    </pattern>
    <linearGradient id="phone" x1="0" y1="0" x2="1" y2="1">
      <stop offset="0" stop-color="#203f36" />
      <stop offset="1" stop-color="#0b1815" />
    </linearGradient>
    <linearGradient id="gold" x1="0" y1="0" x2="1" y2="1">
      <stop offset="0" stop-color="#f0d59b" />
      <stop offset="1" stop-color="#b97248" />
    </linearGradient>
  </defs>

  <rect width="1200" height="630" fill="url(#felt)" />
  <rect width="1200" height="630" fill="url(#weave)" />
  <rect width="1200" height="630" fill="url(#light)" />

  <path d="M90 83H1110V547H90Z" fill="none" stroke="#f0d59b" stroke-opacity="0.2" stroke-width="2" />
  <path d="M120 113H1080V517H120Z" fill="none" stroke="#f0d59b" stroke-opacity="0.12" stroke-width="1" />

  <g filter="url(#shadow)">
    <g transform="translate(662 136) rotate(8)">
      <rect x="0" y="0" width="250" height="356" rx="34" fill="#07110f" />
      <rect x="15" y="18" width="220" height="320" rx="24" fill="url(#phone)" stroke="#f0d59b" stroke-opacity="0.18" />
      <rect x="43" y="64" width="164" height="14" rx="7" fill="#f0d59b" fill-opacity="0.74" />
      <rect x="43" y="104" width="132" height="10" rx="5" fill="#d8efe5" fill-opacity="0.32" />
      <rect x="43" y="130" width="96" height="10" rx="5" fill="#d8efe5" fill-opacity="0.22" />
      <circle cx="71" cy="217" r="45" fill="none" stroke="#69d7b0" stroke-opacity="0.88" stroke-width="14" />
      <path d="M71 172A45 45 0 0 1 114 229" fill="none" stroke="#f0d59b" stroke-width="14" stroke-linecap="round" />
      <rect x="133" y="188" width="64" height="14" rx="7" fill="#f0d59b" fill-opacity="0.65" />
      <rect x="133" y="219" width="42" height="10" rx="5" fill="#d8efe5" fill-opacity="0.28" />
      <rect x="43" y="285" width="164" height="20" rx="10" fill="#f0d59b" fill-opacity="0.9" />
    </g>

    <g transform="translate(312 168) rotate(-11)">
      <rect width="190" height="266" rx="18" fill="#f7f0df" />
      <rect x="16" y="16" width="158" height="234" rx="11" fill="none" stroke="#12302a" stroke-opacity="0.22" stroke-width="3" />
      <text x="34" y="62" font-family="Georgia, serif" font-size="44" font-weight="700" fill="#b33d31">A</text>
      <path d="M95 94C70 64 31 96 50 130C64 156 95 176 95 176C95 176 126 156 140 130C159 96 120 64 95 94Z" fill="#b33d31" />
      <text x="156" y="220" text-anchor="middle" font-family="Georgia, serif" font-size="44" font-weight="700" fill="#b33d31" transform="rotate(180 156 220)">A</text>
    </g>
    <g transform="translate(436 158) rotate(7)">
      <rect width="190" height="266" rx="18" fill="#fbf7ec" />
      <rect x="16" y="16" width="158" height="234" rx="11" fill="none" stroke="#12302a" stroke-opacity="0.22" stroke-width="3" />
      <text x="34" y="62" font-family="Georgia, serif" font-size="44" font-weight="700" fill="#132d27">K</text>
      <path d="M95 85L134 124L95 164L56 124Z" fill="#132d27" />
      <text x="156" y="220" text-anchor="middle" font-family="Georgia, serif" font-size="44" font-weight="700" fill="#132d27" transform="rotate(180 156 220)">K</text>
    </g>

    <g transform="translate(540 410)">
      <circle cx="0" cy="0" r="55" fill="#b85f3d" />
      <circle cx="0" cy="0" r="41" fill="none" stroke="#f0d59b" stroke-width="10" stroke-dasharray="16 14" />
      <circle cx="0" cy="0" r="18" fill="#f0d59b" fill-opacity="0.88" />
    </g>
    <g transform="translate(448 448)">
      <circle cx="0" cy="0" r="47" fill="#0f6b57" />
      <circle cx="0" cy="0" r="34" fill="none" stroke="#d8efe5" stroke-width="8" stroke-dasharray="14 12" />
      <circle cx="0" cy="0" r="15" fill="#d8efe5" fill-opacity="0.82" />
    </g>
    <g transform="translate(616 466)">
      <circle cx="0" cy="0" r="43" fill="#ead19b" />
      <circle cx="0" cy="0" r="31" fill="none" stroke="#12231f" stroke-opacity="0.62" stroke-width="8" stroke-dasharray="12 10" />
      <circle cx="0" cy="0" r="14" fill="#12231f" fill-opacity="0.58" />
    </g>
  </g>

  <g transform="translate(112 132)">
    <text x="0" y="0" font-family="Georgia, 'Times New Roman', serif" font-size="92" font-weight="700" fill="#f3ead5">Poker Pace</text>
    <text x="3" y="60" font-family="-apple-system, BlinkMacSystemFont, 'Segoe UI', sans-serif" font-size="31" font-weight="700" fill="#f0d59b">4주 포커 학습 트레이너</text>
    <path d="M5 92H360" stroke="url(#gold)" stroke-width="4" stroke-linecap="round" />
  </g>
</svg>
